<svg width="224" height="222" viewBox="0 0 224 222" xmlns="http://www.w3.org/2000/svg" xmlns:xlink="http://www.w3.org/1999/xlink"><svg id="all-1" width="18" height="18" viewBox="-1 -1 18 18" x="162" y="204"><style>.aast0{fill-rule:evenodd;clip-rule:evenodd;fill:#5e646c}</style><g id="aaXMLID_2_"><g id="aaXMLID_42_"><path id="aaXMLID_44_" class="aast0" d="M2 3v2h12V3H2zm0 6h12V7H2v2zm0 4h12v-2H2v2z"/></g></g></svg><svg id="all-2" width="18" height="18" viewBox="-1 -1 18 18" x="117" y="27"><style>.abst0{fill-rule:evenodd;clip-rule:evenodd;fill:#008bff}</style><g id="abXMLID_2_"><g id="abXMLID_42_"><path id="abXMLID_44_" class="abst0" d="M2 3v2h12V3H2zm0 6h12V7H2v2zm0 4h12v-2H2v2z"/></g></g></svg><svg id="arrow-1" width="18" height="18" viewBox="-1 -1 18 18" x="204" y="138"><style>.acst0{fill-rule:evenodd;clip-rule:evenodd;fill:#78808c}</style><g id="acXMLID_16_"><path id="acXMLID_17_" class="acst0" d="M10.5 8l-.7-.7-3.6-3.5-.7.7L9.1 8l-3.6 3.5.7.7 3.6-3.5z"/></g></svg><svg id="arrow-2" width="18" height="18" viewBox="-1 -1 18 18" x="72" y="204"><style>.adst0{fill-rule:evenodd;clip-rule:evenodd;fill:#008bff}</style><g id="adXMLID_16_"><path id="adXMLID_17_" class="adst0" d="M10.5 8l-.7-.7-3.6-3.5-.7.7L9.1 8l-3.6 3.5.7.7 3.6-3.5z"/></g></svg><svg id="arrow-812-1" viewBox="-1 -1 10 14" width="10" height="14" x="180" y="204"><style>.aest0{fill-rule:evenodd;clip-rule:evenodd;fill:#7d848d}</style><g id="aeXMLID_2_"><g id="aeXMLID_48_"><path id="aeXMLID_49_" class="aest0" d="M8 6L6.5 4.5 2 0 .5 1.5 5 6 .5 10.5 2 12l4.5-4.5z"/></g></g></svg><svg id="arrow-812-2" viewBox="-1 -1 10 14" width="10" height="14" x="153" y="27"><style>.afst0{fill-rule:evenodd;clip-rule:evenodd;fill:#00a4ff}</style><g id="afXMLID_2_"><g id="afXMLID_48_"><path id="afXMLID_49_" class="afst0" d="M8 6L6.5 4.5 2 0 .5 1.5 5 6 .5 10.5 2 12l4.5-4.5z"/></g></g></svg><svg id="arrow-down" width="18" height="18" viewBox="-1 -1 18 18" x="147" y="100"><style>.agst0{fill-rule:evenodd;clip-rule:evenodd;fill:#7f7f7f}</style><path class="agst0" d="M13.6 4L8 9.3 2.4 4 1 5.3 8 12l7-6.7z"/></svg><svg id="arrow-up" width="18" height="18" viewBox="-1 -1 18 18" y="186"><style>.ahst0{fill-rule:evenodd;clip-rule:evenodd;fill:#7f7f7f}</style><path class="ahst0" d="M13.6 12L8 6.7 2.4 12 1 10.7 8 4l7 6.7z"/></svg><svg id="ask-1616" width="18" height="18" viewBox="-1 -1 18 18" x="18" y="186"><style>.aist0{fill:#7d848d}</style><path class="aist0" d="M8 2c3.3 0 6 2.5 6 5.5S11.3 13 8 13c-.7 0-1.3-.1-1.9-.3l-.7-.2-.7.3-.7.2v-1.4l-.5-.6C2.5 10.1 2 8.8 2 7.5 2 4.5 4.7 2 8 2m0-2C3.6 0 0 3.4 0 7.5c0 1.9.8 3.6 2 4.9V16l3.5-1.4c.8.3 1.6.4 2.5.4 4.4 0 8-3.4 8-7.5S12.4 0 8 0z"/><path class="aist0" d="M7.9 9.4c-.2 0-.5.1-.6.2-.1.2-.2.4-.2.7 0 .2.1.4.3.6.2.2.4.2.6.2.2 0 .4-.1.6-.2.2-.2.2-.4.2-.6 0-.2-.1-.5-.2-.6-.2-.2-.4-.3-.7-.3zm-1-3.3c0-.4.1-.7.2-1 .2-.2.5-.3.9-.3.3 0 .6.1.7.3.3.1.4.3.4.7 0 .2-.1.4-.3.6l-.1.2c-.6.6-1 1-1.2 1.3-.1.2-.2.5-.2.9h1.3c0-.2 0-.4.1-.6l.4-.4c.5-.4.8-.7.9-.8.3-.3.4-.8.4-1.3 0-.6-.2-1.1-.6-1.5-.4-.4-1-.6-1.7-.6-.8 0-1.4.2-1.8.7-.5.4-.7 1-.7 1.8v.1h1.3v-.1z"/></svg><svg id="close" viewBox="-1 -1 18 18" width="18" height="18" x="36" y="186"><style>.ajst0{fill:#fff}</style><path class="ajst0" d="M13.5 14.5c-.3 0-.5-.1-.7-.3l-11-11c-.4-.4-.4-1 0-1.4s1-.4 1.4 0l11 11c.4.4.4 1 0 1.4-.2.2-.4.3-.7.3z"/><path class="ajst0" d="M2.5 14.5c-.3 0-.5-.1-.7-.3-.4-.4-.4-1 0-1.4l11-11c.4-.4 1-.4 1.4 0s.4 1 0 1.4l-11 11c-.2.2-.4.3-.7.3z"/></svg><svg id="close" viewBox="-1 -1 18 18" width="18" height="18" x="54" y="186"><style>.akst0{fill:#fff}</style><path class="akst0" d="M13.5 14.5c-.3 0-.5-.1-.7-.3l-11-11c-.4-.4-.4-1 0-1.4s1-.4 1.4 0l11 11c.4.4.4 1 0 1.4-.2.2-.4.3-.7.3z"/><path class="akst0" d="M2.5 14.5c-.3 0-.5-.1-.7-.3-.4-.4-.4-1 0-1.4l11-11c.4-.4 1-.4 1.4 0s.4 1 0 1.4l-11 11c-.2.2-.4.3-.7.3z"/></svg><svg id="close-1" viewBox="-1 -1 18 18" width="18" height="18" x="72" y="186"><style>.alst0{fill:#0085f2}</style><path class="alst0" d="M13.5 14.5c-.3 0-.5-.1-.7-.3l-11-11c-.4-.4-.4-1 0-1.4s1-.4 1.4 0l11 11c.4.4.4 1 0 1.4-.2.2-.4.3-.7.3z"/><path class="alst0" d="M2.5 14.5c-.3 0-.5-.1-.7-.3-.4-.4-.4-1 0-1.4l11-11c.4-.4 1-.4 1.4 0s.4 1 0 1.4l-11 11c-.2.2-.4.3-.7.3z"/></svg><svg id="close-1" viewBox="-1 -1 18 18" width="18" height="18" x="90" y="186"><style>.amst0{fill:#0085f2}</style><path class="amst0" d="M13.5 14.5c-.3 0-.5-.1-.7-.3l-11-11c-.4-.4-.4-1 0-1.4s1-.4 1.4 0l11 11c.4.4.4 1 0 1.4-.2.2-.4.3-.7.3z"/><path class="amst0" d="M2.5 14.5c-.3 0-.5-.1-.7-.3-.4-.4-.4-1 0-1.4l11-11c.4-.4 1-.4 1.4 0s.4 1 0 1.4l-11 11c-.2.2-.4.3-.7.3z"/></svg><svg width="18" height="18" viewBox="-298 388 18 18" id="close-2424-inline" x="108" y="186"><path fill="#FFF" d="M-283.5 403.5c-.3 0-.5-.1-.7-.3l-11-11c-.4-.4-.4-1 0-1.4.4-.4 1-.4 1.4 0l11 11c.4.4.4 1 0 1.4-.2.2-.4.3-.7.3z"/><path fill="#FFF" d="M-294.5 403.5c-.3 0-.5-.1-.7-.3-.4-.4-.4-1 0-1.4l11-11c.4-.4 1-.4 1.4 0 .4.4.4 1 0 1.4l-11 11c-.2.2-.4.3-.7.3z"/></svg><svg width="18" height="18" viewBox="-1 -1 18 18" id="error-icon" x="126" y="186"><g fill="#E54545"><path d="M8 1a7 7 0 1 0 0 14A7 7 0 0 0 8 1zm0 12c-2.757 0-5-2.243-5-5s2.243-5 5-5 5 2.243 5 5-2.243 5-5 5z"/><path d="M7 4h2v5H7zm0 6h2v2H7z"/></g></svg><svg id="event" width="20" height="20" viewBox="-1 -1 20 20" x="204" y="20"><style>.apst0{fill:#fff}</style><path class="apst0" d="M13.1 2c.2 0 .5 0 .7.3.3.3.3.7.2 1l-.2.7h-3.1l1.7-1.7c.2-.3.5-.3.7-.3M4.9 2c.2 0 .5 0 .7.3L7.3 4H4.2L4 3.3c-.1-.3-.1-.7.2-1 .3-.3.6-.3.7-.3m8.2-2c-.8 0-1.5.3-2.1.9L9 2.8 7.1.9C6.5.3 5.7 0 4.9 0c-.7 0-1.5.3-2.1.9-.8.8-1.1 2-.7 3.1H0v7h1v7h16v-7h1V4h-2.1c.4-1.1.1-2.3-.7-3.1-.6-.6-1.4-.9-2.1-.9zM2 9V6h14v3H2zm8 7v-5h5v5h-5zm-7 0v-5h5v5H3z"/></svg><svg id="feedback" width="20" height="20" viewBox="-1 -1 20 20" x="204" y="100"><style>.aqst0{fill:#666}</style><g id="aqXMLID_72_"><path id="aqXMLID_78_" class="aqst0" d="M5 13h4l8.7-8.7c.4-.4.4-1 0-1.4L15.1.3c-.2-.2-.5-.3-.7-.3-.3 0-.5.1-.7.3L5 9v4zm9.4-10.6l1.2 1.2-1 1-1.2-1.2 1-1zM7 9.8l4.4-4.5 1.2 1.2L8.2 11H7V9.8zm9 6.2H2V2h7V0H0v18h18V9h-2v7z"/></g></svg><svg id="fs-icon-1" width="34" height="34" viewBox="-1 -1 34 34" x="102" y="118"><style>.arst0{fill-rule:evenodd;clip-rule:evenodd;fill:#fff}</style><g id="arXMLID_15_"><path id="arXMLID_29_" class="arst0" d="M16 0C7.2 0 0 7.2 0 16s7.2 16 16 16 16-7.2 16-16S24.8 0 16 0zm0 30C8.3 30 2 23.7 2 16S8.3 2 16 2s14 6.3 14 14-6.3 14-14 14z"/><path id="arXMLID_30_" class="arst0" d="M22.5 12.3l-1.4-.5c-.3.9-.6 1.8-.9 2.6h-1.5c-.3-1-.6-1.9-.9-2.6l-1.4.5.9 2.1h-1.9v1.5h8.3v-1.5h-1.8c.1-.6.4-1.3.6-2.1z"/><path id="arXMLID_31_" class="arst0" d="M23.1 10H20c-.2-.6-.4-1.1-.5-1.5l-1.5.3c.2.4.4.8.6 1.3h-3.1v1.4h7.7V10z"/><path id="arXMLID_32_" class="arst0" d="M10.6 10.5h2.8v8.9h1.3V9.2H9.2v10.5h1.4z"/><path id="arXMLID_33_" class="arst0" d="M12.6 11.6h-1.2v5.2c0 1.4-.2 2.5-.6 3.4-.4.8-1.1 1.5-2.3 2l.8 1.2c1.1-.5 1.9-1.3 2.4-2.3.5-1.1.8-2.5.8-4.3v-5.2z"/><path id="arXMLID_34_" class="arst0" d="M12.3 20.7c.9.9 1.6 1.8 2.1 2.6l1-1c-.6-.8-1.4-1.7-2.2-2.5l-.9.9z"/><path id="arXMLID_37_" class="arst0" d="M16.1 23.4h1.4v-.8h3.6v.8h1.4v-6.3H16v6.3zm1.5-4.9h3.6v2.6h-3.6v-2.6z"/></g></svg><svg id="fs-icon-1-h" width="34" height="34" viewBox="-1 -1 34 34" x="170" y="34"><style>.asst0{fill-rule:evenodd;clip-rule:evenodd;fill:#2277da}</style><g id="asXMLID_15_"><path id="asXMLID_29_" class="asst0" d="M16 0C7.2 0 0 7.2 0 16s7.2 16 16 16 16-7.2 16-16S24.8 0 16 0zm0 30C8.3 30 2 23.7 2 16S8.3 2 16 2s14 6.3 14 14-6.3 14-14 14z"/><path id="asXMLID_30_" class="asst0" d="M22.5 12.3l-1.4-.5c-.3.9-.6 1.8-.9 2.6h-1.5c-.3-1-.6-1.9-.9-2.6l-1.4.5.9 2.1h-1.9v1.5h8.3v-1.5h-1.8c.1-.6.4-1.3.6-2.1z"/><path id="asXMLID_31_" class="asst0" d="M23.1 10H20c-.2-.6-.4-1.1-.5-1.5l-1.5.3c.2.4.4.8.6 1.3h-3.1v1.4h7.7V10z"/><path id="asXMLID_32_" class="asst0" d="M10.6 10.5h2.8v8.9h1.3V9.2H9.2v10.5h1.4z"/><path id="asXMLID_33_" class="asst0" d="M12.6 11.6h-1.2v5.2c0 1.4-.2 2.5-.6 3.4-.4.8-1.1 1.5-2.3 2l.8 1.2c1.1-.5 1.9-1.3 2.4-2.3.5-1.1.8-2.5.8-4.3v-5.2z"/><path id="asXMLID_34_" class="asst0" d="M12.3 20.7c.9.9 1.6 1.8 2.1 2.6l1-1c-.6-.8-1.4-1.7-2.2-2.5l-.9.9z"/><path id="asXMLID_37_" class="asst0" d="M16.1 23.4h1.4v-.8h3.6v.8h1.4v-6.3H16v6.3zm1.5-4.9h3.6v2.6h-3.6v-2.6z"/></g></svg><svg id="fs-icon-2" width="34" height="34" viewBox="-1 -1 34 34" x="170" y="68"><style>.atst0{fill-rule:evenodd;clip-rule:evenodd;fill:#fff}</style><path class="atst0" d="M16 32C7.2 32 0 24.8 0 16S7.2 0 16 0s16 7.2 16 16-7.2 16-16 16zm0-30C8.3 2 2 8.3 2 16s6.3 14 14 14 14-6.3 14-14S23.7 2 16 2zm5 13v2h-4v2h4v2h-4v3h-2v-3h-4v-2h4v-2h-4v-2h3l-4-6h2.3l3.7 5.4L19.7 9H22l-4 6h3z"/></svg><svg id="fs-icon-2-h" width="34" height="34" viewBox="-1 -1 34 34" x="170" y="102"><style>.aust0{fill-rule:evenodd;clip-rule:evenodd;fill:#2277da}</style><path class="aust0" d="M16 32C7.2 32 0 24.8 0 16S7.2 0 16 0s16 7.2 16 16-7.2 16-16 16zm0-30C8.3 2 2 8.3 2 16s6.3 14 14 14 14-6.3 14-14S23.7 2 16 2zm5 13v2h-4v2h4v2h-4v3h-2v-3h-4v-2h4v-2h-4v-2h3l-4-6h2.3l3.7 5.4L19.7 9H22l-4 6h3z"/></svg><svg id="fs-icon-3" width="34" height="34" viewBox="-1 -1 34 34" y="152"><style>.avst0,.avst1{fill:#fff}.avst1{fill-rule:evenodd;clip-rule:evenodd}</style><g id="avXMLID_54_"><path id="avXMLID_55_" class="avst0" d="M16 0C7.2 0 0 7.2 0 16s7.2 16 16 16 16-7.2 16-16S24.8 0 16 0zm0 30C8.3 30 2 23.7 2 16S8.3 2 16 2s14 6.3 14 14-6.3 14-14 14z"/></g><g id="avXMLID_26_"><g id="avXMLID_91_"><path id="avXMLID_92_" class="avst1" d="M23.1 16.1l.7-1.3c-2.2-.3-4.2-.8-5.9-1.4 1.3-.8 2.5-1.8 3.4-2.9V9.2h-6.4l.6-.9-1.6-.3c-1.2 1.7-2.7 3-4.4 4l1 1.2c.8-.5 1.5-1 2.2-1.6.6.6 1.4 1.2 2.2 1.7-1.8.7-3.8 1.2-6.1 1.5l.7 1.3c.5-.1 1-.2 1.6-.3V23h1.5v-.6h7.6v.6h1.5v-7.2H11.3c1.8-.4 3.5-1 5-1.7 1.9.9 4.2 1.6 6.8 2zm-6.1 1h3.1v1.4H17v-1.4zm0 2.6h3.1v1.4H17v-1.4zm-4.6-2.6h3.1v1.4h-3.1v-1.4zm0 2.6h3.1v1.4h-3.1v-1.4zm1.1-9l.2-.2h5.5c-.8.8-1.8 1.5-3 2.1-1-.5-1.9-1.1-2.7-1.9z"/></g></g></svg><svg id="fs-icon-3-h" width="34" height="34" viewBox="-1 -1 34 34" y="118"><style>.awst0,.awst1{fill:#2277da}.awst1{fill-rule:evenodd;clip-rule:evenodd}</style><g id="awXMLID_60_"><path id="awXMLID_61_" class="awst0" d="M16 0C7.2 0 0 7.2 0 16s7.2 16 16 16 16-7.2 16-16S24.8 0 16 0zm0 30C8.3 30 2 23.7 2 16S8.3 2 16 2s14 6.3 14 14-6.3 14-14 14z"/></g><g id="awXMLID_26_"><g id="awXMLID_91_"><path id="awXMLID_92_" class="awst1" d="M23.1 16.1l.7-1.3c-2.2-.3-4.2-.8-5.9-1.4 1.3-.8 2.5-1.8 3.4-2.9V9.2h-6.4l.6-.9-1.6-.3c-1.2 1.7-2.7 3-4.4 4l1 1.2c.8-.5 1.5-1 2.2-1.6.6.6 1.4 1.2 2.2 1.7-1.8.7-3.8 1.2-6.1 1.5l.7 1.3c.5-.1 1-.2 1.6-.3V23h1.5v-.6h7.6v.6h1.5v-7.2H11.3c1.8-.4 3.5-1 5-1.7 1.9.9 4.2 1.6 6.8 2zm-6.1 1h3.1v1.4H17v-1.4zm0 2.6h3.1v1.4H17v-1.4zm-4.6-2.6h3.1v1.4h-3.1v-1.4zm0 2.6h3.1v1.4h-3.1v-1.4zm1.1-9l.2-.2h5.5c-.8.8-1.8 1.5-3 2.1-1-.5-1.9-1.1-2.7-1.9z"/></g></g></svg><svg id="fs-icon-4" width="34" height="34" viewBox="-1 -1 34 34" x="34" y="118"><style>.axst0{fill-rule:evenodd;clip-rule:evenodd;fill:#fff}</style><path class="axst0" d="M16 32C7.2 32 0 24.8 0 16S7.2 0 16 0s16 7.2 16 16-7.2 16-16 16zm0-30C8.3 2 2 8.3 2 16s6.3 14 14 14 14-6.3 14-14S23.7 2 16 2zm1.7 22c-6.3 0-5.9-4-5.9-4 0-2.3 1.3-4.3 3.2-5.3-.5-.6-.8-1.3-.8-2.2 0-1.9 1.5-3.5 3.5-3.5 1.9 0 3.5 1.6 3.5 3.5 0 .8-.3 1.6-.8 2.2 1.9 1 3.2 3 3.2 5.3.1 0 .3 4-5.9 4zm0-13c-.8 0-1.5.7-1.5 1.5s.7 1.5 1.5 1.5 1.5-.7 1.5-1.5-.7-1.5-1.5-1.5zm4 9c0-2.2-1.8-4-3.9-4-2.2 0-3.9 1.8-3.9 4 0 0-.3 2 3.9 2 4 0 3.9-2 3.9-2zM12.5 9.7c-.5.6-.8 1.4-.8 2.2 0 1 .4 1.8 1 2.5-.8.4-2 1-2.4 1.6l-.4.4c-.5.9-.9 1.6-.9 3.3 0 0 0 .3.1.7-1.2-.9-1.2-2.2-1.2-2.2 0-1.9 1-3.5 2.6-4.3-.4-.5-.6-1.1-.6-1.7 0-1.5 1.2-2.8 2.8-2.8h.3c-.1.1-.2.1-.2.2-.2 0-.2.1-.3.1z"/></svg><svg id="fs-icon-4-h" width="34" height="34" viewBox="-1 -1 34 34" x="68" y="118"><style>.ayst0{fill-rule:evenodd;clip-rule:evenodd;fill:#2277da}</style><path class="ayst0" d="M16 32C7.2 32 0 24.8 0 16S7.2 0 16 0s16 7.2 16 16-7.2 16-16 16zm0-30C8.3 2 2 8.3 2 16s6.3 14 14 14 14-6.3 14-14S23.7 2 16 2zm1.7 22c-6.3 0-5.9-4-5.9-4 0-2.3 1.3-4.3 3.2-5.3-.5-.6-.8-1.3-.8-2.2 0-1.9 1.5-3.5 3.5-3.5 1.9 0 3.5 1.6 3.5 3.5 0 .8-.3 1.6-.8 2.2 1.9 1 3.2 3 3.2 5.3.1 0 .3 4-5.9 4zm0-13c-.8 0-1.5.7-1.5 1.5s.7 1.5 1.5 1.5 1.5-.7 1.5-1.5-.7-1.5-1.5-1.5zm4 9c0-2.2-1.8-4-3.9-4-2.2 0-3.9 1.8-3.9 4 0 0-.3 2 3.9 2 4 0 3.9-2 3.9-2zM12.5 9.7c-.5.6-.8 1.4-.8 2.2 0 1 .4 1.8 1 2.5-.8.4-2 1-2.4 1.6l-.4.4c-.5.9-.9 1.6-.9 3.3 0 0 0 .3.1.7-1.2-.9-1.2-2.2-1.2-2.2 0-1.9 1-3.5 2.6-4.3-.4-.5-.6-1.1-.6-1.7 0-1.5 1.2-2.8 2.8-2.8h.3c-.1.1-.2.1-.2.2-.2 0-.2.1-.3.1z"/></svg><svg id="fs-icon-5" width="34" height="34" viewBox="-1 -1 34 34" x="68" y="152"><style>.azst0{fill:#fff}</style><g id="azXMLID_68_"><path id="azXMLID_69_" class="azst0" d="M16 0C7.2 0 0 7.2 0 16s7.2 16 16 16 16-7.2 16-16S24.8 0 16 0zm0 30C8.3 30 2 23.7 2 16S8.3 2 16 2s14 6.3 14 14-6.3 14-14 14zm3.4-12.8c-.8 0-1.3.4-2 .4s-3.5-2.9-3.5-3.7c0-.8.7-.6.7-1.5 0-.6-2.4-4.5-3.3-4.5-.9.1-3.3 2-3.3 3.5C8 15.8 15.8 24 20.7 24c1.4 0 3.3-1.7 3.3-3.4 0-.6-3.8-3.3-4.6-3.4zm2.3 4.5c-.2.2-.4.3-.6.4-.1.1-.3.1-.4.1-.9 0-2-.4-3.3-1.1-1.2-.7-2.5-1.8-3.7-3-1.2-1.2-2.2-2.5-2.9-3.7-.4-.6-.6-1.2-.8-1.7-.2-.5-.3-.9-.3-1.3 0 0 0-.2.1-.3.1-.2.3-.4.5-.6.2-.2.5-.4.7-.5 0 .1.1.1.1.2.2.3.5.6.7 1 .4.6.7 1.2.8 1.5 0 .1-.1.1-.1.2-.2.4-.4.7-.4 1.5 0 .5.2 1.1.8 1.8.3.4.7.9 1.2 1.4.5.5 1 .9 1.4 1.2.7.5 1.2.8 1.8.8.7 0 1.2-.3 1.6-.5.1-.1.2 0 .3.1.3.1.8.4 1.5 1 .7.5 1.1.8 1.3 1 .1.1-.1.3-.3.5z"/></g></svg><svg id="fs-icon-5-h" width="34" height="34" viewBox="-1 -1 34 34" x="136" y="118"><style>.bast0{fill:#2277da}</style><g id="baXMLID_68_"><path id="baXMLID_69_" class="bast0" d="M16 0C7.2 0 0 7.2 0 16s7.2 16 16 16 16-7.2 16-16S24.8 0 16 0zm0 30C8.3 30 2 23.7 2 16S8.3 2 16 2s14 6.3 14 14-6.3 14-14 14zm3.4-12.8c-.8 0-1.3.4-2 .4s-3.5-2.9-3.5-3.7c0-.8.7-.6.7-1.5 0-.6-2.4-4.5-3.3-4.5-.9.1-3.3 2-3.3 3.5C8 15.8 15.8 24 20.7 24c1.4 0 3.3-1.7 3.3-3.4 0-.6-3.8-3.3-4.6-3.4zm2.3 4.5c-.2.2-.4.3-.6.4-.1.1-.3.1-.4.1-.9 0-2-.4-3.3-1.1-1.2-.7-2.5-1.8-3.7-3-1.2-1.2-2.2-2.5-2.9-3.7-.4-.6-.6-1.2-.8-1.7-.2-.5-.3-.9-.3-1.3 0 0 0-.2.1-.3.1-.2.3-.4.5-.6.2-.2.5-.4.7-.5 0 .1.1.1.1.2.2.3.5.6.7 1 .4.6.7 1.2.8 1.5 0 .1-.1.1-.1.2-.2.4-.4.7-.4 1.5 0 .5.2 1.1.8 1.8.3.4.7.9 1.2 1.4.5.5 1 .9 1.4 1.2.7.5 1.2.8 1.8.8.7 0 1.2-.3 1.6-.5.1-.1.2 0 .3.1.3.1.8.4 1.5 1 .7.5 1.1.8 1.3 1 .1.1-.1.3-.3.5z"/></g></svg><svg width="18" height="18" viewBox="-1 -1 18 18" id="gksp" x="144" y="186"><path fill-rule="evenodd" clip-rule="evenodd" fill="#2277DA" d="M8 1C4.1 1 1 4.1 1 8s3.1 7 7 7 7-3.1 7-7-3.1-7-7-7zm0 13c-3.3 0-6-2.7-6-6s2.7-6 6-6 6 2.7 6 6-2.7 6-6 6zm2-6.7L7 5l-1-.7v7.5l1-.8 3.6-2.9.3-.1-.9-.7zM7 9.6V6.3L9.2 8 7 9.6z"/></svg><svg id="global-1616-1" viewBox="-1 -1 18 18" width="18" height="18" x="18" y="204"><style>.bcst0{fill:#fff}.bcst0,.bcst1,.bcst2{fill-rule:evenodd;clip-rule:evenodd}.bcst1{opacity:.2;fill:#fff}.bcst2{fill:none;stroke:#fff;stroke-miterlimit:10}</style><g id="bcXMLID_2_"><g id="bcXMLID_41_"><path id="bcXMLID_42_" class="bcst0" d="M8 1C4.1 1 1 4.1 1 8s3.1 7 7 7 7-3.1 7-7-3.1-7-7-7zm0 13c-3.3 0-6-2.7-6-6s2.7-6 6-6 6 2.7 6 6-2.7 6-6 6z"/></g></g><path id="bcXMLID_1_" class="bcst1" d="M2.5 5.1s1.4-.4 3.2-.8c1 .7-.3 2.2-.9 2.6-.6.4 0 1.7 0 1.7v.9h.9l.9 1.5.9.5.9-.3s1.1-1.5 0-3.5c1.9 0 1.7-1.7 1.7-1.7l4.2.7s-.9-4.1-5.1-5C5 .8 2.7 4 2.5 5.1z"/><path id="bcXMLID_3_" class="bcst2" d="M2.5 5.1s1.4-.4 3.2-.8c1 .7-.3 2.2-.9 2.6-.6.4 0 1.7 0 1.7v.9h.9l.9 1.5.9.5.9-.3s1.1-1.5 0-3.5c1.9 0 1.7-1.7 1.7-1.7l4.2.7s-.9-4.1-5.1-5C5 .8 2.7 4 2.5 5.1z"/></svg><svg id="global-1616-2" viewBox="-1 -1 18 18" width="18" height="18" x="54" y="204"><style>.bdst0{fill:#00a4ff}.bdst0,.bdst1,.bdst2{fill-rule:evenodd;clip-rule:evenodd}.bdst1{opacity:.2;fill:#598aff}.bdst2{fill:none;stroke:#00a4ff;stroke-miterlimit:10}</style><g id="bdXMLID_2_"><g id="bdXMLID_37_"><path id="bdXMLID_38_" class="bdst0" d="M8 1C4.1 1 1 4.1 1 8s3.1 7 7 7 7-3.1 7-7-3.1-7-7-7zm0 13c-3.3 0-6-2.7-6-6s2.7-6 6-6 6 2.7 6 6-2.7 6-6 6z"/></g></g><path id="bdXMLID_1_" class="bdst1" d="M2.5 5.1s1.4-.4 3.2-.8c1 .7-.3 2.2-.9 2.6-.6.4 0 1.7 0 1.7v.9h.9l.9 1.5.9.5.9-.3s1.1-1.5 0-3.5c1.9 0 1.7-1.7 1.7-1.7l4.2.7s-.9-4.1-5.1-5C5 .8 2.7 4 2.5 5.1z"/><path id="bdXMLID_3_" class="bdst2" d="M2.5 5.1s1.4-.4 3.2-.8c1 .7-.3 2.2-.9 2.6-.6.4 0 1.7 0 1.7v.9h.9l.9 1.5.9.5.9-.3s1.1-1.5 0-3.5c1.9 0 1.7-1.7 1.7-1.7l4.2.7s-.9-4.1-5.1-5C5 .8 2.7 4 2.5 5.1z"/></svg><svg width="26" height="26" viewBox="-294 384 26 26" id="hasmsg-2424-1-inline" x="154" y="152"><path fill="#FFF" d="M-271.1 393.9c.3 1 .5 2 .5 3.1 0 2.1-.6 4-1.7 5.6-1.1-2.4-3.2-4.3-5.7-5.1 1.1-.9 1.8-2.2 1.8-3.7 0-2.7-2.1-4.8-4.8-4.8s-4.8 2.1-4.8 4.8c0 1.5.7 2.8 1.8 3.7-2.5.8-4.6 2.7-5.7 5.1-1.1-1.6-1.7-3.5-1.7-5.6 0-5.7 4.7-10.4 10.4-10.4 1.5 0 3 .3 4.3.9.2-.5.4-1 .7-1.4-1.6-.7-3.2-1.1-5-1.1-6.6 0-12 5.4-12 12s5.4 12 12 12 12-5.4 12-12c0-1.3-.2-2.5-.6-3.7-.4.3-.9.5-1.5.6zm-13.1-.1c0-1.8 1.4-3.2 3.2-3.2s3.2 1.4 3.2 3.2c0 1.8-1.4 3.2-3.2 3.2s-3.2-1.4-3.2-3.2zm3.2 13.6c-3 0-5.7-1.3-7.6-3.3 1-3.2 4-5.5 7.6-5.5 3.5 0 6.5 2.3 7.6 5.5-1.9 2-4.6 3.3-7.6 3.3z"/><path fill="#00A4FF" d="M-272 386c1.7 0 3 1.3 3 3s-1.3 3-3 3-3-1.3-3-3 1.3-3 3-3z"/></svg><svg width="26" height="26" viewBox="-294 384 26 26" id="hasmsg-2424-2-inline" x="94" y="73"><path fill="#00A4FF" d="M-271.1 393.9c.3 1 .5 2 .5 3.1 0 2.1-.6 4-1.7 5.6-1.1-2.4-3.2-4.3-5.7-5.1 1.1-.9 1.8-2.2 1.8-3.7 0-2.7-2.1-4.8-4.8-4.8s-4.8 2.1-4.8 4.8c0 1.5.7 2.8 1.8 3.7-2.5.8-4.6 2.7-5.7 5.1-1.1-1.6-1.7-3.5-1.7-5.6 0-5.7 4.7-10.4 10.4-10.4 1.5 0 3 .3 4.3.9.2-.5.4-1 .7-1.4-1.6-.7-3.2-1.1-5-1.1-6.6 0-12 5.4-12 12s5.4 12 12 12 12-5.4 12-12c0-1.3-.2-2.5-.6-3.7-.4.3-.9.5-1.5.6zm-13.1-.1c0-1.8 1.4-3.2 3.2-3.2s3.2 1.4 3.2 3.2c0 1.8-1.4 3.2-3.2 3.2s-3.2-1.4-3.2-3.2zm3.2 13.6c-3 0-5.7-1.3-7.6-3.3 1-3.2 4-5.5 7.6-5.5 3.5 0 6.5 2.3 7.6 5.5-1.9 2-4.6 3.3-7.6 3.3z"/><path fill="#00A4FF" d="M-272 386c1.7 0 3 1.3 3 3s-1.3 3-3 3-3-1.3-3-3 1.3-3 3-3z"/></svg><svg id="icon-tc" width="93" height="18" viewBox="-1 -1 93 18" y="100"><style>.bgst0{fill:#999}</style><g id="bgXMLID_80_"><path id="bgXMLID_81_" class="bgst0" d="M83.8 1.9l-.6 3h-3.8l1.5 2h2l-1.6 8.8h3.4L86.2 7h4.3l-6.7-5.1zM16.4 0H.9L.5 2.3h6L4 15.8h3.4L9.9 2.3H16l.4-2.3zM19 4.7c-4.3 0-7.1 2.6-7.7 5.5-.6 3.3 1.6 5.7 5.9 5.7 2 0 3.8-.3 5.3-1.1l.5-2.5c-1.5 1-3.3 1.5-4.9 1.5-2.2 0-3.9-.9-3.6-2.8h9c.1-.2.2-.6.3-1.1.5-2.3-.4-5.2-4.8-5.2zm1.7 4.5h-5.9c.4-1.1 1.5-2.6 3.6-2.6 2.3 0 2.5 1.6 2.3 2.6zm13.4-4.5c-2.1 0-3.7.8-4.5 1.7h-.1l-3-1.7c-.1.9-.3 2.2-.5 3.5l-1.4 7.6H28l1.2-6.4.3-.9c.5-.8 1.6-1.6 2.9-1.6 1.9 0 2.4 1.2 2.1 2.7l-1.1 6.1h3.4L38 9.4c.6-3.5-1.6-4.7-3.9-4.7zm40.9 0c-2.1 0-3.7.8-4.5 1.7h-.1l-3-1.7c-.1.9-.3 2.2-.5 3.5l-1.4 7.6H69l1.2-6.4.3-.9c.5-.8 1.6-1.6 2.9-1.6 1.9 0 2.4 1.2 2.1 2.7l-1.1 6.1h3.4L79 9.4c.6-3.5-1.6-4.7-4-4.7zm-15.1 0c-4.3 0-7.1 2.6-7.7 5.5-.6 3.3 1.6 5.7 5.9 5.7 2 0 3.8-.3 5.3-1.1l.5-2.5c-1.5 1-3.3 1.5-4.9 1.5-2.2 0-3.9-.9-3.6-2.8h9c.1-.2.2-.6.3-1.1.5-2.3-.4-5.2-4.8-5.2zm1.8 4.5h-5.9c.4-1.1 1.5-2.6 3.6-2.6 2.3 0 2.5 1.6 2.3 2.6zm-22.3 1c-.6 3.3 1.9 5.8 6.1 5.8 1.7 0 3.7-.5 4.5-.7l.6-2.9c-1.2 1.2-2.8 1.4-3.9 1.4-2.3 0-4.1-1.3-3.7-3.5.4-2 2.4-3.5 5-3.5 1.1 0 2.5.3 3.4 1.5l.5-2.9c-.7-.3-1.9-.6-3.7-.6-4.8-.1-8.2 2.2-8.8 5.4z"/></g></svg><svg id="icon-wb" width="18" height="18" viewBox="-298 388 18 18" x="204" y="156"><style>.bhst0{fill:#ccc}</style><path class="bhst0" d="M-282.1 391.9c-1.1-1.2-2.6-1.6-4-1.3-.3.1-.5.4-.5.7.1.3.4.5.7.5 1-.2 2.1.1 2.9.9.7.8.9 2 .6 3-.1.3.1.7.4.8.3.1.7-.1.8-.4.4-1.4.2-3-.9-4.2zm-1.8 3.8c.3.1.6-.1.7-.3.2-.7.1-1.5-.4-2-.5-.6-1.3-.8-2-.6-.3.1-.5.3-.4.6.1.3.3.5.6.4.3-.1.7 0 1 .3.3.3.3.7.2 1-.2.2 0 .5.3.6zm-1.1 1.1c-.2-.1-.5-.1-.3-.4.3-.6.4-1.2.1-1.6-.5-.7-1.9-.7-3.6 0 0 0-.5.2-.4-.2.3-.8.2-1.5-.2-1.9-.9-.9-3.2 0-5.2 2.1-1.5 1.5-2.4 3.1-2.4 4.5 0 2.7 3.4 4.3 6.7 4.3 4.4 0 7.2-2.5 7.2-4.5.1-1.4-1-2.1-1.9-2.3zm-5.3 5.7c-2.6.3-4.9-.9-5.1-2.7-.2-1.7 1.8-3.4 4.5-3.6 2.6-.3 4.9.9 5.1 2.7.2 1.8-1.8 3.4-4.5 3.6zm.3-4.9c-1.3-.3-2.7.3-3.2 1.4-.6 1.1 0 2.4 1.3 2.8 1.3.4 2.9-.2 3.4-1.5.5-1.2-.2-2.4-1.5-2.7zm-1 2.9c-.3.4-.8.6-1.2.4-.4-.2-.5-.7-.3-1.1.3-.4.8-.6 1.2-.4.4.2.6.7.3 1.1zm.9-1.1c-.1.2-.3.2-.5.2-.2-.1-.2-.2-.1-.4s.3-.2.4-.2c.2 0 .3.2.2.4z"/></svg><svg id="icon-wb-h" width="18" height="18" viewBox="-298 388 18 18" x="204" y="120"><style>.bist0{fill:#fff}</style><path class="bist0" d="M-282.1 391.8c-1.1-1.2-2.6-1.6-4-1.3-.3.1-.5.4-.5.7.1.3.4.5.7.5 1-.2 2.1.1 2.9.9.7.8.9 2 .6 3-.1.3.1.7.4.8.3.1.7-.1.8-.4.4-1.4.2-3-.9-4.2zm-1.8 3.8c.3.1.6-.1.7-.3.2-.7.1-1.5-.4-2-.5-.6-1.3-.8-2-.6-.3.1-.5.3-.4.6.1.3.3.5.6.4.3-.1.7 0 1 .3s.3.7.2 1c-.2.2 0 .5.3.6zm-1.1 1.1c-.2-.1-.5-.1-.3-.4.3-.6.4-1.2.1-1.6-.5-.7-1.9-.7-3.6 0 0 0-.5.2-.4-.2.3-.8.2-1.5-.2-1.9-.9-.9-3.2 0-5.2 2.1-1.5 1.5-2.4 3.1-2.4 4.5 0 2.7 3.4 4.3 6.7 4.3 4.4 0 7.2-2.5 7.2-4.5.1-1.4-1-2.1-1.9-2.3zm-5.3 5.7c-2.6.3-4.9-.9-5.1-2.7-.2-1.7 1.8-3.4 4.5-3.6 2.6-.3 4.9.9 5.1 2.7.2 1.8-1.8 3.4-4.5 3.6zm.3-4.9c-1.3-.3-2.7.3-3.2 1.4-.6 1.1 0 2.4 1.3 2.8s2.9-.2 3.4-1.5c.5-1.2-.2-2.4-1.5-2.7zm-1 2.9c-.3.4-.8.6-1.2.4-.4-.2-.5-.7-.3-1.1.3-.4.8-.6 1.2-.4.4.2.6.7.3 1.1zm.9-1.1c-.1.2-.3.2-.5.2-.2-.1-.2-.2-.1-.4s.3-.2.4-.2c.2 0 .3.2.2.4z"/></svg><svg id="icon-wx" width="18" height="18" viewBox="-298 388 18 18" x="135" y="27"><style>.bjst0{fill:#ccc}</style><path class="bjst0" d="M-281 398.8c0-2.3-2.3-4.1-4.8-4.1-2.7 0-4.8 1.8-4.8 4.1s2.1 4.1 4.8 4.1c.6 0 1.1-.1 1.7-.3l1.6.8-.4-1.4c1.1-.8 1.9-1.9 1.9-3.2zm-6.4-.7c-.3 0-.5-.2-.5-.5s.2-.5.5-.5.5.2.5.5c0 .2-.2.5-.5.5zm3.1 0c-.3 0-.5-.2-.5-.5s.2-.5.5-.5.5.2.5.5c0 .2-.2.5-.5.5zm-1.9-3.7h.5c-.5-2.3-2.9-4-5.7-4-3.1 0-5.7 2.1-5.7 4.8 0 1.6.8 2.8 2.3 3.8l-.6 1.7 2-1c.7.1 1.3.3 2 .3h.5c-.1-.4-.2-.8-.2-1.2.1-2.4 2.2-4.4 4.9-4.4zm-3.1-1.5c.4 0 .8.3.8.7s-.3.7-.8.7c-.4 0-.8-.3-.8-.7s.4-.7.8-.7zm-4 1.5c-.4 0-.7-.3-.7-.7s.3-.7.7-.7c.4 0 .8.3.8.7s-.4.7-.8.7z"/></svg><svg id="icon-wx-h" width="18" height="18" viewBox="-298 388 18 18" x="93" y="100"><style>.bkst0{fill:#fff}</style><path class="bkst0" d="M-280.9 398.9c0-2.3-2.3-4.1-4.8-4.1-2.7 0-4.8 1.8-4.8 4.1s2.1 4.1 4.8 4.1c.6 0 1.1-.1 1.7-.3l1.6.8-.4-1.4c1.1-.8 1.9-1.9 1.9-3.2zm-6.4-.7c-.3 0-.5-.2-.5-.5s.2-.5.5-.5.5.2.5.5c0 .2-.2.5-.5.5zm3.1 0c-.3 0-.5-.2-.5-.5s.2-.5.5-.5.5.2.5.5c0 .2-.2.5-.5.5zm-1.9-3.7h.5c-.5-2.3-2.9-4-5.7-4-3.1 0-5.7 2.1-5.7 4.8 0 1.6.8 2.8 2.3 3.8l-.6 1.7 2-1c.7.1 1.3.3 2 .3h.5c-.1-.4-.2-.8-.2-1.2.1-2.4 2.2-4.4 4.9-4.4zm-3.1-1.5c.4 0 .8.3.8.7s-.3.7-.8.7c-.4 0-.8-.3-.8-.7s.4-.7.8-.7zm-4 1.5c-.4 0-.7-.3-.7-.7s.3-.7.7-.7c.4 0 .8.3.8.7s-.4.7-.8.7z"/></svg><svg width="8" height="6" viewBox="-303 394 8 6" id="lang-64-1-inline" x="104" y="66"><path fill="#FFF" d="M-299 397l1.5-2h1.5l-3 4-3-4h1.5l1.5 2z"/></svg><svg width="8" height="6" viewBox="-303 394 8 6" id="lang-64-2-inline" x="96" y="66"><path fill="#00A4FF" d="M-299 397l1.5-2h1.5l-3 4-3-4h1.5l1.5 2z"/></svg><svg id="link-1212-1" viewBox="-1 -1 14 14" width="14" height="14" x="184" y="136"><style>.bnst0{fill-rule:evenodd;clip-rule:evenodd;fill:#7d848d}</style><path id="bnXMLID_2_" class="bnst0" d="M1 11V1h3v1H2v8h8V8h1v3H1zm5.1-4.4l-.7-.7 2.8-2.8L6 1h5v5L8.9 3.9 6.1 6.6z"/></svg><svg id="link-1212-2" viewBox="-1 -1 14 14" width="14" height="14" x="170" y="136"><style>.bost0{fill-rule:evenodd;clip-rule:evenodd;fill:#00a4ff}</style><path id="boXMLID_2_" class="bost0" d="M1 11V1h3v1H2v8h8V8h1v3H1zm5.1-4.4l-.7-.7 2.8-2.8L6 1h5v5L8.9 3.9 6.1 6.6z"/></svg><svg id="logo-9225-color" viewBox="-1 -1 94 27" width="94" height="27" y="73"><style>.bpst0{fill:#fff}.bpst1{fill:#00a3ff}.bpst2{fill:#00c8dc}.bpst3{fill:#006eff}</style><g id="bpXMLID_25_"><path id="bpXMLID_38_" class="bpst0" d="M72.8 4.6h-10V6h3v5.3h-3.5v1.5h3.5v8.9h1.6v-8.9h3.8v8.7h3V20h-1.4V4.6zm-5.4 6.7V6h3.8v5.3h-3.8z"/><path id="bpXMLID_14_" class="bpst0" d="M45 17.6h7.9v1.5H45z"/><path id="bpXMLID_33_" class="bpst0" d="M39.6 14.9c0 2.6-.2 4.6-.7 6.4 0 .2 0 .2.1.2h1.5c.5-2.4.5-4.5.6-5.9h2v4.5h-1.4c-.1 0-.1 0-.1.1l.4 1.3h2.6V4.6h-4.9v10.3zm1.5-.6v-3.5h2v3.5h-2zm2-8.2v3.4h-2V6.1h2z"/><path id="bpXMLID_30_" class="bpst0" d="M53.5 10.5h1.9V9.2h-5.7c.2-.4.3-.9.5-1.4h4.9V6.5h-1.4c.2-.8.5-1.8.5-1.8 0-.1 0-.1-.1-.1h-1.2l-.6 1.9h-1.7c.1-.7.2-1.6.4-2.5 0-.1 0-.1-.1-.1h-1.4c-.1 1-.3 1.9-.5 2.7h-.9l-.6-1.9h-1.2c-.1 0-.1 0-.1.1s.3 1 .5 1.8h-1.4v1.3h3.2c-.1.4-.3.9-.5 1.4h-3v1.3h2.3c-.9 1.3-1.9 1.9-2.3 2.2v1.5c0 .1.1.2.3 0 .4-.2.9-.5 1.4-.9H52v2h-4.3l.1-1.2c0-.1 0-.1-.1-.1h-1.4l-.1 2.5c0 .1 0 .1.1.1h7.4v3.5h-3.3c-.1 0-.1 0-.1.1l.4 1.3h4.6v-6.3h-1.8l.1-2.5c.7.6 1.4 1.1 2 1.4.2.1.3.1.3 0v-1.5c-.5-.3-1.5-.9-2.4-2.2zm-1.8 0c.3.6.7 1.1 1.1 1.5H48c.4-.4.7-.9 1.1-1.5h2.6z"/><path id="bpXMLID_8_" class="bpst0" d="M63.8 16.6s-1.4 1-2.7 2V9.2h-3.7v1.6h2.1v9c-.5.4-.9.6-.9.6l.9 1.2 4.4-3.3v-1.6c.1-.1 0-.2-.1-.1z"/><path id="bpXMLID_7_" class="bpst0" d="M59.7 7.7h1.7c.1 0 .1-.1.1-.1l-2.2-3.4h-1.7l-.1.1c.1.1 2.2 3.4 2.2 3.4z"/><path id="bpXMLID_6_" class="bpst0" d="M77.6 5h12.6v1.6H77.6z"/><path id="bpXMLID_5_" class="bpst0" d="M82.2 12.6H92V11H75.8v1.6h4.5c-.9 2.4-3.2 8.5-3.3 8.6 0 .1 0 .1.1.1H91c.1 0 .1-.1.1-.1L89 15.7h-1.7c-.1 0-.1.1-.1.1 0 .1 1.5 3.9 1.5 3.9h-9.2l2.7-7.1z"/></g><g id="bpXMLID_19_"><path id="bpXMLID_22_" class="bpst1" d="M29.5 20.6c-.6.6-1.7 1.3-3.5 1.3H14.3c3.5-3.4 6.5-6.3 6.8-6.6.3-.3 1-1 1.6-1.5 1.3-1.2 2.5-1.4 3.4-1.4 1.3 0 2.5.6 3.4 1.4 1.9 1.9 1.9 4.9 0 6.8m2.3-9c-1.4-1.5-3.4-2.4-5.6-2.4-1.9 0-3.5.7-5 1.8-.6.5-1.3 1.1-2.1 1.9-.5.5-12.3 12-12.3 12 .6.1 1.4.1 2.2.1h14.9c1.1 0 1.9 0 2.7-.1 1.8-.1 3.6-.8 5-2.2 3.2-3 3.2-8 .2-11.1z"/><path id="bpXMLID_2_" class="bpst2" d="M12.6 10.9c-1.4-1-3-1.6-4.7-1.6-2.2 0-4.2.9-5.6 2.4-3 3.1-3 8.1.1 11.2 1.3 1.2 2.8 1.9 4.4 2.1l3.1-3H8.1c-1.8-.1-2.9-.7-3.5-1.3a4.86 4.86 0 0 1-.1-6.8c.9-.9 2.1-1.4 3.4-1.4.8 0 2 .2 3.3 1.3.6.5 2 1.7 2.6 2.2h.1l2.1-2.1v-.1c-1.1-1-2.5-2.3-3.4-2.9"/><path id="bpXMLID_1_" class="bpst3" d="M27 7.5c-1.5-4.1-5.4-7-10-7-5.3 0-9.6 3.9-10.4 8.9.4-.1.8-.2 1.3-.2.6 0 1.2.1 1.8.2.7-3.4 3.7-5.9 7.3-5.9 3 0 5.6 1.8 6.8 4.4 0 0 .1.1.1 0 .9-.2 2-.4 3-.3.1 0 .1-.1.1-.1"/></g></svg><svg id="logo-cn" viewBox="-1 -1 96 27" width="96" height="27" y="46"><style>.bqst0{fill:#fff}</style><g id="bqXMLID_16_"><g id="bqXMLID_20_"><path id="bqXMLID_33_" class="bqst0" d="M74 4.2H63.8v1.5h3.1v5.4h-3.5v1.5h3.5v9h1.6v-9h3.9v8.8h3.1v-1.5H74V4.2zm-5.5 6.9V5.7h3.9v5.4h-3.9z"/><path id="bqXMLID_12_" class="bqst0" d="M45.7 17.4h8v1.5h-8z"/><path id="bqXMLID_28_" class="bqst0" d="M40.2 14.7c0 2.7-.2 4.7-.7 6.5 0 .2 0 .2.1.2h1.5c.5-2.5.6-4.5.6-6h2.1V20h-1.5c-.1 0-.1 0-.1.1l.4 1.3h2.6V4.3h-5v10.4zm1.5-.6v-3.5h2.1v3.5h-2.1zm2.1-8.4v3.5h-2.1V5.7h2.1z"/><path id="bqXMLID_25_" class="bqst0" d="M54.3 10.2h2V8.9h-5.8c.2-.4.3-.9.5-1.3h4.9V6.2h-1.4c.2-.8.5-1.8.5-1.8 0-.1 0-.1-.1-.1h-1.3l-.6 2h-1.8c.2-.8.3-1.6.4-2.6 0-.1 0-.1-.1-.1h-1.4c-.1 1-.3 1.9-.5 2.7h-.9l-.6-2H47c-.1 0-.1 0-.1.1s.3 1 .5 1.8H46v1.3h3.3c-.1.5-.3 1-.5 1.4h-3.1v1.3H48c-.9 1.3-1.9 2-2.3 2.2v1.5c0 .1.1.2.3 0 .4-.2.9-.5 1.4-.9h5.5v2h-4.3l.1-1.2c0-.1 0-.1-.1-.1h-1.4l-.1 2.5c0 .1 0 .1.1.1h7.5V20h-3.4c-.1 0-.1 0-.1.1l.4 1.3h4.7V15h-1.8l.1-2.6c.7.6 1.4 1.1 2 1.5.2.1.3.1.3 0v-1.5c-.7-.2-1.7-.8-2.6-2.2zm-1.8 0c.4.6.7 1.1 1.1 1.5h-4.8c.4-.4.7-.9 1.1-1.5h2.6z"/><path id="bqXMLID_6_" class="bqst0" d="M64.8 16.4s-1.4 1.1-2.7 2.1V8.9h-3.8v1.6h2.2v9.2c-.5.4-.9.7-.9.7l.9 1.2 4.5-3.4v-1.7c-.1-.1-.1-.1-.2-.1z"/><path id="bqXMLID_5_" class="bqst0" d="M60.7 7.5h1.8c.1 0 .1-.1.1-.1L60.4 4h-1.8c-.1 0-.1.1-.1.1l2.2 3.4z"/><path id="bqXMLID_4_" class="bqst0" d="M78.8 4.6h12.8v1.6H78.8z"/><path id="bqXMLID_3_" class="bqst0" d="M83.5 12.4h10v-1.6H77v1.6h4.5c-.9 2.5-3.3 8.7-3.3 8.7 0 .1 0 .1.1.1h14.1c.1 0 .1-.1.1-.1l-2.1-5.5h-1.8c-.1 0-.1.1-.1.1 0 .1 1.5 3.9 1.5 3.9h-9.4l2.9-7.2z"/></g><path id="bqXMLID_17_" class="bqst0" d="M32.2 11.4C30.8 9.9 28.8 9 26.5 9c-1.9 0-3.6.7-5.1 1.9-.6.5-1.3 1.1-2.1 1.9-.3.3-5.8 5.6-9.4 9.1H8c-1.8-.1-2.9-.8-3.5-1.4-1.9-1.9-2-5-.1-6.9.9-.9 2.1-1.4 3.5-1.5.8 0 2 .2 3.3 1.3.6.5 2 1.7 2.6 2.3h.1l2.1-2.1v-.1c-1-.9-2.5-2.2-3.4-2.9-.9-.7-1.9-1.2-3-1.4.7-3.5 3.8-6 7.4-6 3 0 5.7 1.8 6.9 4.4 0 0 .1.1.1 0 .9-.2 2-.4 3-.3.1 0 .1-.1.1-.1C25.9 3 21.9 0 17.3 0 11.9 0 7.5 4 6.7 9.1c-1.7.3-3.3 1.1-4.4 2.3-3.1 3.2-3 8.2.1 11.3 1.3 1.3 2.8 1.9 4.5 2.2.6.1 1.5.1 2.3.1h15.2c1.2 0 1.9 0 2.7-.1 1.9-.1 3.6-.8 5.1-2.2 3.1-3.1 3.1-8.2 0-11.3zm-2.3 9.1c-.6.6-1.7 1.3-3.5 1.4H14.5c3.5-3.4 6.6-6.4 6.9-6.7.3-.3 1-1 1.7-1.6 1.4-1.2 2.6-1.5 3.4-1.5 1.4 0 2.6.6 3.5 1.5 1.9 1.9 1.8 5-.1 6.9z"/></g></svg><svg id="logo-en" viewBox="-1 -1 170 27" width="170" height="27"><style>.brst0{fill:#fff}</style><path id="brXMLID_42_" class="brst0" d="M9.8 9.2c.7-3.5 3.8-6 7.4-6 3 0 5.7 1.8 6.9 4.4 0 0 .1.1.1 0 .9-.2 2-.4 3-.3.1 0 .1-.1.1-.1C25.9 3 21.9 0 17.3 0 11.9 0 7.5 3.9 6.7 9.1c-1.7.3-3.3 1.1-4.4 2.3-3.1 3.2-3.1 8.2.1 11.3 1.3 1.3 2.8 1.9 4.5 2.2.6.1 1.5.1 2.3.1h15.2c1.2 0 1.9 0 2.7-.1 1.9-.1 3.6-.8 5.1-2.2 3.2-3.1 3.2-8.2.1-11.3C30.8 9.9 28.8 9 26.6 9c-1.9 0-3.6.7-5.1 1.9-.6.5-1.3 1.1-2.1 1.9-.3.3-5.8 5.6-9.4 9.1H8.1c-1.8-.1-2.9-.8-3.5-1.4-1.9-1.9-2-5-.1-6.9.9-.9 2.1-1.4 3.5-1.5.8 0 2 .2 3.3 1.3.6.5 2 1.7 2.6 2.3h.1l2.1-2.1v-.1c-1-.9-2.5-2.2-3.4-2.9-.8-.7-1.8-1.2-2.9-1.4zm20.1 11.3c-.6.6-1.7 1.3-3.5 1.4h-12c3.5-3.4 6.6-6.4 6.9-6.7.3-.3 1-1 1.7-1.6 1.4-1.2 2.6-1.5 3.4-1.5 1.4 0 2.6.6 3.5 1.5 2 1.9 2 5 0 6.9z"/><g id="brXMLID_21_"><path id="brXMLID_16_" class="brst0" d="M128.2 16c0-.1-.1-.1-.2-.1-1.2 1.3-2.9 2.4-5.2 2.4-3.3 0-5.5-2.3-5.5-5.9 0-3.6 2-5.9 5.3-5.9 1.9 0 3.9.9 5.1 2.2.1.1.2 0 .2-.1V6.8c-1.3-1.2-3.3-1.9-5.3-1.9-2.1 0-3.8.7-5.1 2.1-1.2 1.4-1.9 3.3-1.9 5.5 0 4.5 2.9 7.6 7.1 7.6 2 0 4-.8 5.4-2V16z"/><path id="brXMLID_15_" class="brst0" d="M37.6 5.2v1.6h5v12.8h1.7V6.8h5V5.2z"/><path id="brXMLID_37_" class="brst0" d="M166.3 10.2c-.9-1-2.4-1.3-3.5-1.3-1.4 0-2.7.5-3.6 1.5-.9 1-1.4 2.4-1.4 4 0 3.8 2.5 5.6 5.1 5.6 1.5 0 2.7-.5 3.4-1.5v1.2h1.7V5.3h-1.7v4.9zm-.1 4.2c0 2-1.1 4-3.3 4-1.6 0-3.4-1.2-3.4-3.9 0-2 1-4.1 3.3-4.1 2.5 0 3.4 2.2 3.4 4z"/><path id="brXMLID_12_" class="brst0" d="M130.4 5.3h1.7v14.4h-1.7z"/><path id="brXMLID_11_" class="brst0" d="M80.3 17c0-.1-.1-.1-.2-.1-1.1 1-2.8 1.4-3.5 1.4-2.3 0-3.8-1.5-3.8-3.9s1.5-3.9 3.8-3.9c.7 0 2.3.2 3.5 1.2.1.1.2 0 .2-.1V10c-.7-.4-2.2-1.1-3.7-1.1-3.2 0-5.3 2.2-5.3 5.5s2.1 5.5 5.3 5.5c1.3 0 2.6-.4 3.7-1.1V17z"/><path id="brXMLID_32_" class="brst0" d="M57.7 16.7c0-.1-.1-.1-.2-.1-.8 1-2.6 1.8-3.7 1.8s-2.1-.4-2.6-.9c-.7-.7-1-1.6-1-2.6h8.1v-.1c0-2.3-.4-3.6-1.4-4.6-.8-.9-2-1.3-3.4-1.3-3 0-5 2.2-5 5.5.1 3.5 2.1 5.6 5.3 5.6 1.5 0 2.8-.5 4-1.5v-1.8zm-1.1-3.3h-6.4c.1-.9.5-1.7 1.2-2.3.6-.5 1.3-.7 2.1-.7 1.8 0 3 1.1 3.1 3z"/><path id="brXMLID_8_" class="brst0" d="M154.1 14.5c0 2.9-1.7 3.9-3.1 3.9-1.4 0-2.8-.9-2.8-2.7V9.1h-1.6v6.5c0 2.5 1.8 4.3 4.4 4.3 1.4 0 2.5-.5 3.3-1.4v1.2h1.6V9.1h-1.7v5.4z"/><path id="brXMLID_7_" class="brst0" d="M65 8.9c-1.3 0-2.4.4-3.2 1.2v-1h-1.6v10.6h1.7v-6c0-1 .3-1.8.9-2.4.6-.6 1.3-.9 2.2-.8 1.3 0 2.6.9 2.6 2.7v6.5h1.7v-6.6c0-1.3-.4-2.4-1.2-3.1-.8-.8-1.9-1.1-3.1-1.1z"/><path id="brXMLID_27_" class="brst0" d="M91.1 16.7c0-.1-.1-.1-.2-.1-.8 1-2.6 1.8-3.7 1.8s-2.1-.4-2.6-.9c-.7-.7-1-1.6-1-2.6h8.1v-.1c0-2.3-.4-3.6-1.4-4.6-.8-.9-2-1.3-3.4-1.3-3 0-5 2.2-5 5.5.1 3.5 2.1 5.6 5.3 5.6 1.5 0 2.8-.5 4-1.5v-1.8zM90 13.4h-6.4c.1-.9.5-1.7 1.2-2.3.6-.5 1.3-.7 2.1-.7 1.8 0 3 1.1 3.1 3z"/><path id="brXMLID_4_" class="brst0" d="M98.3 8.9c-1.3 0-2.4.4-3.2 1.2v-1h-1.6v10.6h1.7v-6c0-1 .3-1.8.9-2.4.6-.6 1.3-.9 2.2-.8 1.3 0 2.6.9 2.6 2.7v6.5h1.7v-6.6c0-1.3-.4-2.4-1.2-3.1-.8-.8-1.8-1.1-3.1-1.1z"/><path id="brXMLID_3_" class="brst0" d="M108 19.8c1-.1 2.2-.5 2.2-.5v-1.6c0-.1-.1-.1-.1-.1-.4.1-1.3.4-1.8.5-.2 0-.3.1-.4 0-.1-.1-.1-.2-.1-.3v-7.1h3V9.1h-3V6.3H106v2.8h-1.7v1.5h1.7v7.3c0 .6.2 1.1.6 1.4.3.3.8.5 1.4.5z"/><path id="brXMLID_22_" class="brst0" d="M139.6 8.9c-3.1 0-5.1 2.2-5.1 5.5s2.1 5.5 5.1 5.5c3.1 0 5.1-2.2 5.1-5.5s-2.1-5.5-5.1-5.5zm-3.6 5.5c0-2.3 1.4-3.9 3.5-3.9s3.5 1.6 3.5 3.9-1.4 3.9-3.5 3.9c-2 0-3.5-1.6-3.5-3.9z"/></g></svg><svg id="logo-en" viewBox="-1 -1 117 19" width="117" height="19" y="27"><style>.bsst0{fill:#fff}</style><g id="bsXMLID_20_"><path id="bsXMLID_42_" class="bsst0" d="M6.7 6.2c.5-2.4 2.6-4.1 5.1-4.1 2.1 0 3.9 1.2 4.7 3h.1c.5-.1 1.2-.2 2-.1.1 0 .1 0 .1-.1C17.6 2 14.9 0 11.7 0 8.1 0 5.1 2.7 4.5 6.2c-1.2.2-2.2.8-3 1.6-2.1 2.2-2.1 5.6.1 7.7.9.9 1.9 1.3 3 1.5h13.8c1.3-.1 2.5-.6 3.4-1.5 2.2-2.1 2.2-5.6.1-7.7-1-1-2.4-1.6-3.9-1.6-1.3 0-2.5.5-3.4 1.3-.4.4-.9.8-1.5 1.3-.2.2-3.9 3.8-6.4 6.2H5.4c-1.2 0-2-.5-2.4-.9-1.3-1.3-1.3-3.4-.1-4.7.6-.6 1.4-1 2.4-1 .6 0 1.4.2 2.2.9.4.4 1.4 1.2 1.8 1.5h.1L11 9.3v-.1c-.7-.6-1.7-1.5-2.3-2-.6-.4-1.3-.8-2-1zm13.7 7.7c-.4.4-1.2.9-2.4.9H9.9c2.4-2.3 4.5-4.4 4.7-4.6l1.1-1.1c.9-.8 1.8-1 2.3-1 .9 0 1.8.4 2.4 1 1.3 1.4 1.3 3.5 0 4.8z"/><g id="bsXMLID_21_"><path id="bsXMLID_16_" class="bsst0" d="M87.6 10.9c0-.1-.1-.1-.1 0-.8.9-2 1.6-3.5 1.6-2.3 0-3.7-1.6-3.7-4 0-2.5 1.4-4 3.6-4 1.3 0 2.7.6 3.5 1.5h.1V4.6c-.9-.8-2.2-1.3-3.6-1.3s-2.6.5-3.5 1.4c-.8.9-1.3 2.2-1.3 3.7 0 3.1 1.9 5.2 4.8 5.2 1.4 0 2.7-.5 3.6-1.4v-1.3z"/><path id="bsXMLID_15_" class="bsst0" d="M26.1 3.6v1h3.4v8.8h1.1V4.6H34v-1z"/><path id="bsXMLID_37_" class="bsst0" d="M113.6 6.9c-.6-.7-1.6-.9-2.3-.9-1 0-1.8.4-2.5 1-.6.7-1 1.6-1 2.7 0 2.6 1.7 3.8 3.5 3.8 1 0 1.8-.4 2.3-1v.8h1.2V3.6h-1.2v3.3zm-.1 2.9c0 1.3-.8 2.7-2.3 2.7-1.1 0-2.3-.8-2.3-2.6 0-1.3.7-2.8 2.2-2.8 1.8 0 2.4 1.4 2.4 2.7z"/><path id="bsXMLID_12_" class="bsst0" d="M89.2 3.6h1.2v9.8h-1.2z"/><path id="bsXMLID_11_" class="bsst0" d="M55.1 11.6c0-.1-.1-.1-.1-.1-.8.7-1.9 1-2.4 1-1.6 0-2.6-1.1-2.6-2.7s1-2.7 2.6-2.7c.5 0 1.6.1 2.4.8 0 0 .1 0 .1-.1v-1c-.5-.3-1.5-.8-2.6-.8-2.2 0-3.6 1.5-3.6 3.8s1.5 3.8 3.6 3.8c.9 0 1.8-.2 2.5-.8v-1.2z"/><path id="bsXMLID_32_" class="bsst0" d="M39.7 11.3c0-.1-.1-.1-.1 0-.5.7-1.8 1.2-2.5 1.2s-1.4-.2-1.8-.6c-.5-.5-.7-1.1-.7-1.8h5.5V10c0-1.5-.3-2.4-.9-3.1-.6-.6-1.4-.9-2.4-.9-2 0-3.4 1.5-3.4 3.7.1 2.4 1.4 3.8 3.6 3.8 1 0 1.9-.3 2.7-1v-1.2zM39 9.1h-4.4c0-.6.3-1.2.8-1.6.4-.3.9-.5 1.4-.5 1.3 0 2.1.8 2.2 2.1z"/><path id="bsXMLID_8_" class="bsst0" d="M105.3 9.8c0 2-1.1 2.6-2.1 2.6-.9 0-1.9-.6-1.9-1.8V6.2h-1.1v4.4c0 1.7 1.2 2.9 3 2.9 1 0 1.7-.3 2.2-1v.8h1.1V6.2h-1.1v3.6z"/><path id="bsXMLID_7_" class="bsst0" d="M44.7 6c-.9 0-1.7.3-2.2.8v-.6h-1.1v7.2h1.1V9.3c0-.7.2-1.3.6-1.6.4-.4.9-.6 1.5-.6.9 0 1.8.6 1.8 1.9v4.4h1.1V8.9c0-.9-.3-1.6-.8-2.1s-1.2-.8-2-.8z"/><path id="bsXMLID_27_" class="bsst0" d="M62.4 11.3c0-.1-.1-.1-.1 0-.5.7-1.8 1.2-2.5 1.2s-1.4-.2-1.8-.6c-.5-.5-.7-1.1-.7-1.8h5.5V10c0-1.5-.3-2.4-.9-3.1-.6-.6-1.4-.9-2.4-.9-2 0-3.4 1.5-3.4 3.7.1 2.4 1.4 3.8 3.6 3.8 1 0 1.9-.3 2.7-1v-1.2zm-.7-2.2h-4.4c0-.6.3-1.2.8-1.6.4-.3.9-.5 1.4-.5 1.3 0 2.1.8 2.2 2.1z"/><path id="bsXMLID_4_" class="bsst0" d="M67.4 6c-.9 0-1.7.3-2.2.8v-.6h-1.1v7.2h1.1V9.3c0-.7.2-1.3.6-1.6.4-.4.9-.6 1.5-.6.9 0 1.8.6 1.8 1.9v4.4h1.1V8.9c0-.9-.3-1.6-.8-2.1s-1.2-.8-2-.8z"/><path id="bsXMLID_3_" class="bsst0" d="M73.9 13.5c.7 0 1.5-.3 1.5-.3v-1.1s0-.1-.1-.1c-.3.1-.9.3-1.2.3h-.3c-.1 0-.1-.1-.1-.2V7.2h2.1v-1h-2.1V4.3h-1.2v1.9h-1.2v1h1.2v4.9c0 .4.1.8.4 1 .3.3.6.4 1 .4z"/><path id="bsXMLID_22_" class="bsst0" d="M95.4 6c-2.1 0-3.5 1.5-3.5 3.8s1.4 3.8 3.5 3.8 3.5-1.5 3.5-3.8S97.5 6 95.4 6zM93 9.8c0-1.6 1-2.7 2.4-2.7s2.4 1.1 2.4 2.7-1 2.7-2.4 2.7S93 11.4 93 9.8z"/></g></g></svg><svg id="nav-2218" viewBox="-1 -1 24 20" width="24" height="20" x="180" y="152"><style>.btst0{fill-rule:evenodd;clip-rule:evenodd;fill:#fff}</style><g id="btXMLID_2_"><g id="btXMLID_42_"><path id="btXMLID_43_" class="btst0" d="M0 0v2h22V0H0zm0 10h22V8H0v2zm0 8h22v-2H0v2z"/></g></g></svg><svg id="nav-2218-actived" viewBox="-1 -1 24 20" width="24" height="20" x="146" y="73"><style>.bust0{fill-rule:evenodd;clip-rule:evenodd;fill:#00a4ff}</style><g id="buXMLID_2_"><g id="buXMLID_46_"><path id="buXMLID_47_" class="bust0" d="M0 0v2h22V0H0zm0 10h22V8H0v2zm0 8h22v-2H0v2z"/></g></g></svg><svg width="34" height="34" viewBox="-290 380 34 34" id="nav-3232-actived-inline" x="170"><path fill="#00A4FF" d="M-285.5 390h25c.8 0 1.5-.7 1.5-1.5s-.7-1.5-1.5-1.5h-25c-.8 0-1.5.7-1.5 1.5s.7 1.5 1.5 1.5zm25 6h-25c-.8 0-1.5.7-1.5 1.5s.7 1.5 1.5 1.5h25c.8 0 1.5-.7 1.5-1.5s-.7-1.5-1.5-1.5zm0 9h-25c-.8 0-1.5.7-1.5 1.5s.7 1.5 1.5 1.5h25c.8 0 1.5-.7 1.5-1.5s-.7-1.5-1.5-1.5z"/></svg><svg width="34" height="34" viewBox="-290 380 34 34" id="nav-3232-inline" x="34" y="152"><path fill="#FFF" d="M-285.5 390h25c.8 0 1.5-.7 1.5-1.5s-.7-1.5-1.5-1.5h-25c-.8 0-1.5.7-1.5 1.5s.7 1.5 1.5 1.5zm25 6h-25c-.8 0-1.5.7-1.5 1.5s.7 1.5 1.5 1.5h25c.8 0 1.5-.7 1.5-1.5s-.7-1.5-1.5-1.5zm0 9h-25c-.8 0-1.5.7-1.5 1.5s.7 1.5 1.5 1.5h25c.8 0 1.5-.7 1.5-1.5s-.7-1.5-1.5-1.5z"/></svg><svg id="pc-l-arrow" width="18" height="18" viewBox="-1 -1 18 18" x="162" y="186"><style>.bxst0{fill-rule:evenodd;clip-rule:evenodd;fill:#666}</style><path id="bxXMLID_2_" class="bxst0" d="M6.2 8.7L9.8 12l.7-.7L6.9 8l3.6-3.3-.7-.7-3.6 3.3-.7.7.7.7z"/></svg><svg id="pc-l-arrow-hover" width="18" height="18" viewBox="-1 -1 18 18" x="180" y="186"><style>.byst0{fill-rule:evenodd;clip-rule:evenodd;fill:#2b2b2b}</style><path id="byXMLID_2_" class="byst0" d="M6.2 8.7L9.8 12l.7-.7L6.9 8l3.6-3.3-.7-.7-3.6 3.3-.7.7.7.7z"/></svg><svg id="pc-r-arrow" width="18" height="18" viewBox="-1 -1 18 18" x="198" y="186"><style>.bzst0{fill-rule:evenodd;clip-rule:evenodd;fill:#666}</style><path id="bzXMLID_5_" class="bzst0" d="M9.8 7.3L6.2 3.8l-.7.7L9.1 8l-3.6 3.5.7.7 3.6-3.5.7-.7z"/></svg><svg id="pc-r-arrow-hover" width="18" height="18" viewBox="-1 -1 18 18" y="204"><style>.cast0{fill-rule:evenodd;clip-rule:evenodd;fill:#2a2b2b}</style><path id="caXMLID_5_" class="cast0" d="M9.8 7.3L6.2 3.8l-.7.7L9.1 8l-3.6 3.5.7.7 3.6-3.5.7-.7z"/></svg><svg id="phone" width="20" height="20" viewBox="-1 -1 20 20" x="204" y="60"><style>.cbst0{fill:#666}</style><g id="cbXMLID_51_"><path id="cbXMLID_52_" class="cbst0" d="M12 7h2c0-1.7-1.3-3-3-3v2c.5 0 1 .5 1 1zm4 0h2c0-3.9-3.1-7-7-7v2c2.8 0 5 2.2 5 5zm1 3h-5l-1 1c-.1.1-.3.2-.4.2C9.2 11.2 6.1 7.9 7 7l1-1V1c0-.6-.4-1-1-1H1C.5 0 0 .5 0 1c.3 11.9 5.1 16.7 17 17 .6 0 1-.4 1-1v-6c0-.5-.5-1-1-1zm-1 6C6.2 15.5 2.5 11.8 2 2h4v3.5L4.7 7c0 .2.1 1 .4 1.8 1 2.5 4.4 4.3 5.9 4.4l1.5-1.2H16v4z"/></g></svg><svg id="phone-1616" viewBox="-1 -1 18 18" width="18" height="18" x="36" y="204"><style>.ccst0{fill:#7d848d}</style><path id="ccXMLID_2_" class="ccst0" d="M11.4 9.2c-.8 0-1.3.4-2 .4-.7.1-3.5-2.8-3.5-3.6 0-.8.7-.6.7-1.5C6.6 3.9 4.2 0 3.3 0 2.4 0 0 1.9 0 3.4 0 7.8 7.8 16 12.7 16c1.4 0 3.3-1.7 3.3-3.4 0-.6-3.8-3.3-4.6-3.4zm2.3 4.5c-.2.2-.4.3-.6.4-.1.1-.3.1-.4.1-.9 0-2-.4-3.3-1.1-1.2-.7-2.5-1.8-3.7-3C4.5 9 3.5 7.7 2.8 6.4c-.3-.6-.6-1.2-.8-1.7-.2-.5-.2-1-.2-1.3 0 0 0-.2.1-.3.1-.3.3-.5.5-.7.2-.2.4-.4.7-.5l.1.1c.2.3.5.6.7 1 .4.6.7 1.2.8 1.5 0 .1-.1.1-.1.2-.1.4-.3.7-.3 1.5 0 .6.2 1.1.7 1.8.3.5.8 1 1.2 1.4.5.5 1 .9 1.4 1.2.7.5 1.2.8 1.8.8.7 0 1.2-.3 1.6-.5.1-.1.2 0 .3.1.3.1.8.4 1.5 1 .7.5 1.1.8 1.3 1 0 .3-.2.5-.4.7z"/></svg><svg id="research" width="20" height="20" viewBox="-1 -1 20 20" x="204" y="80"><style>.cdst0{fill:#666}</style><g id="cdXMLID_55_"><path id="cdXMLID_56_" class="cdst0" d="M14 12H4v2h10v-2zM0 0v18h18V0H0zm16 16H2V2h14v14zm-7-6h5V8h-3l-2 2zM7.5 9l.7-.7L11 5.5 9.7 4 6.8 6.8 5.4 5.4 4 6.8l2.8 2.8.7-.6z"/></g></svg><svg id="s-logo" width="67" height="20" viewBox="-1 -1 67 20" x="96" y="46"><style>.cest0{fill:#fff}</style><g id="ceXMLID_2_"><g id="ceXMLID_6_"><path id="ceXMLID_19_" class="cest0" d="M51.5 3.2h-7.1v1h2.1V8h-2.4v1h2.4v6.3h1.1V9h2.7v6.1h2.1v-1h-1V3.2zM47.6 8V4.2h2.7V8h-2.7z"/><path id="ceXMLID_18_" class="cest0" d="M31.8 12.4h5.6v1h-5.6z"/><path id="ceXMLID_14_" class="cest0" d="M28 10.5c0 1.9-.2 3.3-.5 4.5 0 .1 0 .1.1.1h1c.4-1.6.4-3.1.4-4.1h1.4v3.2h-1s-.1 0-.1.1l.3.9h1.8v-12H28v7.3zm1-.4V7.6h1.4v2.5H29zm1.4-5.9v2.4H29V4.2h1.4z"/><path id="ceXMLID_11_" class="cest0" d="M37.8 7.4h1.4v-.9h-4c.1-.3.2-.6.3-1h3.4v-.9h-1c.2-.6.4-1.2.4-1.3 0-.1 0-.1-.1-.1h-.9l-.4 1.4h-1.2c.1-.6.2-1.1.3-1.8 0-.1 0-.1-.1-.1h-1c-.1.7-.2 1.3-.3 1.9H34l-.4-1.4h-.9s-.1 0-.1.1c0 0 .2.7.4 1.3h-1v.9h2.3c-.1.3-.2.6-.4 1h-2.2v.9h1.6c-.7.9-1.4 1.4-1.6 1.5V10c0 .1 0 .1.2 0 .3-.2.6-.4 1-.6h3.8v1.4h-3V10s0-.1-.1-.1h-1l-.1 1.7s0 .1.1.1h5.2v2.5h-2.3s-.1 0-.1.1l.3.9H39v-4.4h-1.3V9c.5.4 1 .8 1.4 1 .2.1.2 0 .2 0V8.9c-.2-.2-.9-.6-1.5-1.5zm-1.3 0c.2.4.5.8.8 1.1H34c.3-.3.5-.7.7-1.1h1.8z"/><path id="ceXMLID_10_" class="cest0" d="M45.1 11.7s-1 .7-1.9 1.4V6.5h-2.6v1.1h1.5V14c-.4.3-.6.5-.6.5l.6.8 3.1-2.4v-1.2s-.1-.1-.1 0z"/><path id="ceXMLID_9_" class="cest0" d="M42.2 5.4h1.2c.1 0 .1-.1.1-.1l-1.6-2.4h-1.2s-.1.1 0 .2l1.5 2.3z"/><path id="ceXMLID_8_" class="cest0" d="M54.8 3.5h8.9v1.1h-8.9z"/><path id="ceXMLID_7_" class="cest0" d="M58.1 8.9H65V7.7H53.6v1.1h3.2c-.7 1.7-2.3 6-2.3 6.1 0 0 0 .1.1.1h9.8s.1 0 .1-.1L63 11h-1.2s-.1 0-.1.1l1 2.7h-6.5l1.9-4.9z"/></g><path id="ceXMLID_3_" class="cest0" d="M22.4 8.2c-1-1-2.4-1.7-4-1.7-1.3 0-2.5.5-3.5 1.3-.4.4-.9.8-1.5 1.4-.2.2-4 3.9-6.5 6.3H5.6c-1.3 0-2-.5-2.4-.9-1.3-1.4-1.4-3.6 0-4.9.6-.6 1.5-1 2.4-1 .6 0 1.4.2 2.3.9.4.4 1.4 1.2 1.8 1.6h.1l1.5-1.5v-.1C10.6 9 9.6 8 9 7.6c-.6-.5-1.3-.8-2.1-1 .4-2.4 2.6-4.2 5.1-4.2 2.1 0 4 1.3 4.8 3.1h.1c.6-.2 1.4-.3 2.1-.2.1 0 .1 0 .1-.1-1-2.9-3.8-5-7-5C8.3.3 5.2 3 4.6 6.6c-1.2.2-2.2.8-3 1.6-2.2 2.2-2.1 5.7.1 7.9.9.9 2 1.3 3.1 1.5.4.1 1 .1 1.6.1h12.4c1.3-.1 2.5-.6 3.5-1.5 2.3-2.3 2.3-5.8.1-8zm-1.6 6.3c-.4.4-1.2.9-2.4.9h-8.3c2.4-2.4 4.6-4.5 4.8-4.7.2-.2.7-.7 1.2-1.1.9-.9 1.8-1 2.4-1 .9 0 1.8.4 2.4 1 1.3 1.4 1.3 3.6-.1 4.9z"/></g></svg><svg id="search" viewBox="-1 -1 18 18" width="18" height="18" x="90" y="204"><style>.cfst0{fill:#fff}</style><g id="cfXMLID_2_"><g id="cfXMLID_36_"><path id="cfXMLID_37_" class="cfst0" d="M14.8 13.4l-2.5-2.5C13.4 9.7 14 8.2 14 6.5 14 2.9 11.1 0 7.5 0S1 2.9 1 6.5 3.9 13 7.5 13c1.2 0 2.3-.3 3.2-.9l2.7 2.7c.4.4 1 .4 1.4 0 .4-.4.4-1 0-1.4zM3 6.5C3 4 5 2 7.5 2S12 4 12 6.5 10 11 7.5 11 3 9 3 6.5z"/></g></g></svg><svg id="search-1" viewBox="-1 -1 18 18" width="18" height="18" x="108" y="204"><style>.cgst0{fill-rule:evenodd;clip-rule:evenodd;fill:#006fff}</style><g id="cgXMLID_2_"><g id="cgXMLID_36_"><path id="cgXMLID_37_" class="cgst0" d="M14.8 13.4l-2.5-2.5C13.4 9.7 14 8.2 14 6.5 14 2.9 11.1 0 7.5 0S1 2.9 1 6.5 3.9 13 7.5 13c1.2 0 2.3-.3 3.2-.9l2.7 2.7c.4.4 1 .4 1.4 0 .4-.4.4-1 0-1.4zM3 6.5C3 4 5 2 7.5 2S12 4 12 6.5 10 11 7.5 11 3 9 3 6.5z"/></g></g></svg><svg width="18" height="18" viewBox="-298 388 18 18" id="search-1616-1-inline" x="126" y="204"><path fill="#FFF" d="M-282.3 403.3l-2.5-2.5c1-1.1 1.7-2.7 1.7-4.3 0-3.6-2.9-6.5-6.5-6.5-3.5 0-6.4 2.9-6.4 6.5s2.9 6.4 6.4 6.4c1.2 0 2.3-.3 3.2-.9l2.7 2.7c.4.4 1 .4 1.4 0 .4-.4.4-1 0-1.4zm-7.3-2.4c-2.4 0-4.4-2-4.4-4.4s2-4.5 4.4-4.5c2.5 0 4.5 2 4.5 4.5s-2 4.4-4.5 4.4z"/></svg><svg width="18" height="18" viewBox="-298 388 18 18" id="search-1616-2-inline" x="144" y="204"><path fill="#00A4FF" d="M-282.3 403.3l-2.5-2.5c1-1.1 1.7-2.7 1.7-4.3 0-3.6-2.9-6.5-6.5-6.5-3.5 0-6.4 2.9-6.4 6.5s2.9 6.4 6.4 6.4c1.2 0 2.3-.3 3.2-.9l2.7 2.7c.4.4 1 .4 1.4 0 .4-.4.4-1 0-1.4zm-7.3-2.4c-2.4 0-4.4-2-4.4-4.4s2-4.5 4.4-4.5c2.5 0 4.5 2 4.5 4.5s-2 4.4-4.5 4.4z"/></svg><svg id="service" width="20" height="20" viewBox="-1 -1 20 20" x="204"><style>.cjst0{fill:#666}</style><g id="cjXMLID_38_"><path id="cjXMLID_39_" class="cjst0" d="M16 7h-1c0-3.3-2.7-6-6-6S3 3.7 3 7H2C.9 7 0 7.9 0 9v2c0 1.1.9 2 2 2h1c0 2.2 1.8 4 4 4h4v-3H7v1c-1.1 0-2-.9-2-2V7c0-2.2 1.8-4 4-4s4 1.8 4 4v6h3c1.1 0 2-.9 2-2V9c0-1.1-.9-2-2-2zM2 11V9h1v2H2zm14 0h-1V9h1v2z"/></g></svg><svg id="shopping" width="20" height="20" viewBox="-1 -1 20 20" x="204" y="40"><style>.ckst0{fill-rule:evenodd;clip-rule:evenodd;fill:#666}</style><path class="ckst0" d="M0 18V0h18v18H0zM16 2H2v2h14V2zm0 4H2v10h14V6zm-7 5c1.7 0 3-1.3 3-3h2c0 2.8-2.2 5-5 5s-5-2.2-5-5h2c0 1.7 1.3 3 3 3z"/></svg><svg width="26" height="26" viewBox="-1 -1 26 26" id="sousuo" x="120" y="73"><linearGradient id="cla" gradientUnits="userSpaceOnUse" x1="5.13" y1="4.569" x2="21.377" y2="20.817"><stop offset="0" stop-color="#fff"/><stop offset="1" stop-color="#fff"/></linearGradient><path fill-rule="evenodd" clip-rule="evenodd" fill="url(#cla)" d="M21.5 20.6l-3.6-3.4c1.6-1.6 2.6-3.8 2.6-6.3 0-5-4-9-9-9s-9 4-9 9 4 9 9 9c1.8 0 3.5-.5 4.9-1.4l3.8 3.6 1.3-1.5zM11.4 18c-3.9 0-7-3.1-7-7s3.1-7 7-7 7 3.1 7 7c.1 3.9-3.1 7-7 7z"/></svg><svg id="triangle-down" width="18" height="18" viewBox="-1 -1 18 18" x="129" y="100"><style>.cmst0{fill:#7f7f7f}</style><path class="cmst0" d="M8 11L3 5h10l-5 6z"/></svg><svg id="triangle-up" width="18" height="18" viewBox="-1 -1 18 18" x="111" y="100"><style>.cnst0{fill:#7f7f7f}</style><path class="cnst0" d="M13 11H3l5-6 5 6z"/></svg><svg width="26" height="26" viewBox="-294 384 26 26" id="user-2424-1-inline" x="102" y="152"><path fill="#FFF" d="M-281 385c-6.6 0-12 5.4-12 12s5.4 12 12 12 12-5.4 12-12-5.4-12-12-12zm0 1.6c5.7 0 10.4 4.7 10.4 10.4 0 2.1-.6 4-1.7 5.6-1.1-2.4-3.2-4.3-5.7-5.1 1.1-.9 1.8-2.2 1.8-3.7 0-2.7-2.1-4.8-4.8-4.8s-4.8 2.1-4.8 4.8c0 1.5.7 2.8 1.8 3.7-2.5.8-4.6 2.7-5.7 5.1-1.1-1.6-1.7-3.5-1.7-5.6 0-5.7 4.7-10.4 10.4-10.4zm0 10.4c-1.8 0-3.2-1.4-3.2-3.2 0-1.8 1.4-3.2 3.2-3.2s3.2 1.4 3.2 3.2c0 1.8-1.4 3.2-3.2 3.2zm0 10.4c-3 0-5.7-1.3-7.6-3.3 1-3.2 4-5.5 7.6-5.5 3.5 0 6.5 2.3 7.6 5.5-1.9 2-4.6 3.3-7.6 3.3z"/></svg><svg width="26" height="26" viewBox="-294 384 26 26" id="user-2424-2-inline" x="128" y="152"><path fill="#00A4FF" d="M-281 385c-6.6 0-12 5.4-12 12s5.4 12 12 12 12-5.4 12-12-5.4-12-12-12zm0 1.6c5.7 0 10.4 4.7 10.4 10.4 0 2.1-.6 4-1.7 5.6-1.1-2.4-3.2-4.3-5.7-5.1 1.1-.9 1.8-2.2 1.8-3.7 0-2.7-2.1-4.8-4.8-4.8s-4.8 2.1-4.8 4.8c0 1.5.7 2.8 1.8 3.7-2.5.8-4.6 2.7-5.7 5.1-1.1-1.6-1.7-3.5-1.7-5.6 0-5.7 4.7-10.4 10.4-10.4zm0 10.4c-1.8 0-3.2-1.4-3.2-3.2 0-1.8 1.4-3.2 3.2-3.2s3.2 1.4 3.2 3.2c0 1.8-1.4 3.2-3.2 3.2zm0 10.4c-3 0-5.7-1.3-7.6-3.3 1-3.2 4-5.5 7.6-5.5 3.5 0 6.5 2.3 7.6 5.5-1.9 2-4.6 3.3-7.6 3.3z"/></svg><svg width="13" height="9" viewBox="-1 -1 13 9" id="xiala" x="204" y="174"><path fill-rule="evenodd" clip-rule="evenodd" fill="#999" d="M10.5 1.4L9.8.6 5.5 4.9 1.2.6l-.7.8 4.3 4.2.7.8v-.1.1l.7-.8z"/></svg></svg>